<?xml version="1.0" encoding="UTF-8"?>
<svg height="200px" version="1.1" viewBox="1800 230 700 700" xmlns="http://www.w3.org/2000/svg" xmlns:xlink="http://www.w3.org/1999/xlink">
 <g>
  <path d="m558.64 272.86c-13.684-1.3945-26.027-1.168-38.98-1.1992-25.281-0.070312-50.555-5.4766-75.836-5.2891-56.617 0.49219-114.11-2.6211-170.93 2.5-16.781 1.4883-33.543 2.75-50.156 4.8906-1.5938 0.19141-3.1719 0.39062-4.7734 0.61719-15.586 2.0391-35.934 0.84766-51.426 2.9883-13.641 2.8438-24.211 6.4102-37.27 5.4375-3.4648-0.67188-7.1562-1.8867-9.2344-4.3438-4.5352-5.2773-6.6445-10.105-4.4492-14.129 0.71484-1.3242 1.9492-2.6875 3.2773-3.9141 2.5938-2.2812 5.707-4.0664 7.3984-4.2227 29.195-3.1094 62.316-3.6953 88.699-4.25 13.023-0.26172 26.469-0.61719 42.91-1.293 37.98-0.96875 97.871-1.5938 135.89-2.5273 33.219-0.83984 66.527 3.7891 99.426 7.2305 12.508 1.3008 20.383 1.3008 31.598 1.6562 1.8711 0.023437 3.9883 0.09375 6.1602 0.15625 11.082 0.35547 31.043-1.3945 37.488 1.9727 6.4531 3.4023 10.957 3.7578 16.594 10.012 0.29687 6.168-1.9727 9.0156-4.8516 10.051-6.7148 2.4648-12.867 5.2188-18.09 6.0664-6.1172 0.96875-11.051 1.0078-12.051-1.3242-0.96875-2.3398-0.42188-3.7891 0.54688-4.8594 1.6875-1.75 4.7305-3.6641 7.4531-4.9609z"/>
  <path d="m292.41 300.76c10.434-0.54687 20.93-1.2617 31.336-0.88281 13.16 0.46094 24.309 1.9531 37.371 1.75 4.4062-0.054688 31.211 0.03125 34.871-0.023438 11.406-0.19922 22.625-0.16016 34 0.15625 7.5469 0.22266 15.133 0.67969 22.625 1.5625 17.629 2.0703 35.84 3.4648 53.18 7.418 4.4062 1.0078 8.9102 1.8477 13.348 1.0391 4.4062-0.77734 11.148-3.1094 10.695-7.9414-0.51562-5.6445-5.1836-12.668-10.797-14.449-1.7188-0.52344-5.668-2.957-7.418-3.3164-1.6484-0.32422-3.1094-1.4805-4.6367-1.6797-3.5977-0.48438-6.2891 1.168-9.625 1.9805-3.8906 0.94141-12.312-1.6914-16.332-1.7852-14.191-0.35547-22.457 3.2656-36.656 3.1406-8.3867-0.0625-16.82-0.32422-25.211-0.46094-8.0586-0.12891-16.133 0.10547-24.172-0.32422-5.6133-0.28516-11.148-1.8164-16.719-1.9414-4.7734-0.097656-9.6016 0.77734-14.293 1.7188-4.0117 0.83984-8.4297 0.48438-12.508 0.51562-3.7266 0.070313-8.293-0.87109-11.766 0-4.4727 1.1367-9.4375 1.168-14 1.6172-8.5859 0.84766-12.906-0.67969-21.453 0.39063-5.3203 0.64844-9.2461 2.6875-14.555 1.9492-2.7188-0.39062-9.6875 1.3633-12.406 1.0703-2.793-0.26172-2.9883 1.7422-5.5078 2.0703-3.0547 0.37891-6.1367 0.29297-9.1797 0.41797-1.293 0.070312-4.7656-0.070312-5.668 0.94531-1.2695 1.3945 1.2617 4.2734 3.168 5.0898 6.9766 3.043 17.051 0.60938 24.402 0.35547 2.625-0.089844 5.2578-0.22266 7.9062-0.38281z"/>
 </g>
</svg>
